<?xml version="1.0" standalone="no"?>
<!DOCTYPE svg PUBLIC "-//W3C//DTD SVG 20010904//EN"
 "http://www.w3.org/TR/2001/REC-SVG-20010904/DTD/svg10.dtd">
<svg version="1.0" xmlns="http://www.w3.org/2000/svg"
 width="1200.000000pt" height="1200.000000pt" viewBox="0 0 1200.000000 1200.000000"
 preserveAspectRatio="xMidYMid meet">
<metadata>
Created by potrace 1.14, written by Peter Selinger 2001-2017
</metadata>
<g transform="translate(0.000000,1200.000000) scale(0.100000,-0.100000)"
fill="#000000" stroke="none">
<path d="M6526 8949 c-16 -5 -33 -6 -38 -3 -4 3 -8 0 -8 -5 0 -6 -5 -11 -11
-11 -13 0 -64 -41 -66 -54 -1 -5 -6 -12 -11 -15 -5 -3 -33 -37 -63 -76 -29
-38 -56 -71 -61 -73 -4 -2 -8 -8 -8 -14 0 -6 -11 -23 -25 -40 -14 -16 -25 -37
-25 -47 0 -24 -24 -54 -44 -57 -10 -1 -54 -5 -99 -9 -45 -3 -98 -7 -117 -10
-20 -2 -67 -6 -105 -9 -280 -22 -258 -16 -299 -80 -19 -30 -39 -57 -45 -61 -6
-3 -9 -11 -6 -16 4 -5 2 -9 -2 -9 -5 0 -19 -18 -32 -39 -15 -24 -31 -38 -40
-35 -9 2 -36 8 -60 14 -24 6 -53 16 -65 22 -11 6 -43 12 -71 14 -46 2 -65 -5
-230 -91 -99 -51 -205 -106 -235 -122 -30 -15 -56 -31 -58 -35 -2 -5 -10 -8
-17 -8 -19 0 -44 -70 -34 -96 4 -12 5 -25 2 -28 -4 -3 -1 -6 5 -6 7 0 12 -6
12 -12 0 -7 12 -27 28 -43 117 -129 184 -218 187 -248 3 -42 42 -181 60 -218
9 -16 15 -31 15 -34 0 -16 39 -84 64 -110 l28 -30 -6 30 c-3 17 -9 41 -12 55
-3 14 -6 34 -6 45 -1 11 -4 25 -8 30 -8 13 -6 117 4 172 7 40 12 45 97 97 49
31 94 56 99 56 6 0 10 4 10 9 0 5 8 11 19 14 17 4 27 -4 51 -43 7 -12 12 -12
22 -2 18 18 25 15 32 -12 4 -17 12 -24 25 -21 13 2 24 -7 37 -32 18 -34 28
-40 81 -45 12 -1 20 -5 17 -9 -2 -4 0 -10 4 -13 8 -4 12 -32 13 -81 1 -5 -8
-34 -18 -63 -13 -38 -24 -54 -40 -58 -18 -5 -23 -13 -23 -41 0 -27 -5 -36 -20
-40 -12 -3 -20 -13 -19 -22 3 -30 -1 -39 -20 -44 -20 -5 -22 -32 -6 -89 11
-43 -26 -97 -89 -130 -54 -27 -76 -30 -83 -10 -4 9 -14 25 -23 35 -10 10 -23
37 -30 60 -8 23 -18 48 -23 55 -5 6 -6 12 -3 12 4 0 2 9 -4 20 -6 11 -15 20
-20 20 -16 0 -45 -119 -43 -177 1 -30 -8 -29 -74 7 -64 36 -73 37 -73 9 0 -11
-4 -18 -9 -15 -5 3 -12 -10 -15 -28 -4 -19 -11 -36 -16 -38 -4 -2 -10 -10 -12
-18 -2 -8 -6 -17 -9 -20 -4 -3 -9 -15 -13 -26 -5 -17 6 -36 46 -85 29 -35 60
-71 69 -80 9 -9 21 -23 25 -30 25 -39 88 -62 178 -63 46 -1 81 -5 83 -12 2 -5
-17 -28 -42 -50 -79 -68 -190 -178 -212 -209 -24 -35 -42 -87 -48 -141 -3 -21
-9 -61 -15 -89 -5 -27 -12 -63 -15 -80 -2 -16 -7 -41 -9 -55 -13 -65 -15 -100
-7 -100 6 0 36 14 68 30 31 17 63 30 69 30 6 0 17 7 24 15 7 8 21 15 31 15 11
0 19 5 19 10 0 6 6 10 13 10 7 0 52 20 100 45 48 24 87 42 87 39 0 -3 -83 -86
-184 -186 -123 -119 -192 -195 -205 -223 -17 -35 -21 -73 -26 -207 -4 -89 -9
-208 -11 -263 -2 -55 -5 -121 -7 -147 -1 -27 0 -48 3 -48 3 0 19 12 36 28 18
15 58 50 90 77 32 28 68 59 80 70 12 11 43 39 70 62 27 23 60 51 73 62 13 12
31 22 40 23 22 2 28 3 91 16 30 7 66 14 80 16 14 3 26 5 28 7 1 1 11 3 22 4
11 1 21 3 23 5 1 1 11 3 22 4 11 2 36 6 55 11 19 4 44 9 55 11 34 5 79 15 113
24 17 4 32 7 32 5 0 -5 -117 -85 -125 -85 -3 0 -28 -16 -55 -35 -28 -19 -50
-32 -50 -28 0 5 -5 0 -11 -9 -5 -10 -15 -18 -20 -18 -6 0 -25 -11 -43 -25 -18
-14 -38 -25 -44 -25 -7 0 -12 -4 -12 -9 0 -5 -13 -14 -30 -21 -16 -7 -30 -16
-30 -20 0 -4 -10 -11 -22 -15 -17 -5 -19 -8 -8 -11 8 -3 22 -8 30 -11 8 -4 19
-5 23 -4 5 1 47 -5 95 -13 48 -8 105 -18 127 -21 22 -4 47 -8 55 -10 8 -2 24
-4 34 -4 19 -1 -185 -141 -205 -141 -5 0 -9 -4 -9 -8 0 -4 -26 -21 -57 -37
-32 -17 -60 -33 -63 -36 -16 -19 -299 -154 -340 -161 -8 -2 -17 -6 -20 -9 -5
-6 -134 -48 -168 -54 -9 -2 -17 -4 -17 -5 0 -1 -7 -3 -15 -5 -8 -1 -41 -8 -73
-15 -32 -6 -72 -13 -90 -15 -18 -2 -32 -4 -32 -5 0 -8 -293 -13 -360 -6 -22 3
-58 7 -80 11 -22 3 -53 8 -70 10 -16 2 -30 4 -30 5 0 1 -11 3 -25 6 -21 3 -40
8 -82 19 -5 2 -11 4 -15 5 -5 1 -12 3 -18 4 -14 2 -56 16 -80 26 -11 4 -42 16
-70 25 -27 10 -74 28 -103 41 -29 13 -57 24 -62 24 -6 0 -10 4 -10 8 0 4 -17
14 -37 21 -21 8 -40 17 -43 20 -3 3 -24 16 -48 29 -23 12 -61 32 -84 45 -24
12 -47 26 -53 30 -5 4 -48 33 -95 64 -126 83 -255 180 -317 241 -13 12 -27 22
-30 22 -18 0 -278 277 -360 385 -21 28 -41 52 -46 53 -4 2 -7 10 -7 17 0 7 -4
15 -8 17 -27 10 -182 269 -260 433 -29 61 -57 118 -62 127 -6 10 -10 25 -10
33 0 8 -5 15 -12 15 -6 0 -9 2 -6 6 8 7 -48 138 -61 142 -6 2 -11 -7 -12 -20
0 -12 -2 -32 -5 -43 -8 -35 -8 -188 0 -270 11 -120 13 -136 20 -185 13 -83 17
-105 28 -165 6 -33 12 -69 13 -80 2 -11 10 -47 19 -81 8 -33 18 -71 20 -85 2
-13 5 -24 6 -24 1 0 3 -7 5 -15 10 -51 51 -185 72 -240 4 -8 7 -17 8 -20 1 -3
5 -14 10 -25 4 -11 16 -40 26 -65 9 -25 25 -63 35 -85 10 -22 18 -42 19 -45 0
-3 19 -39 40 -80 22 -41 45 -86 52 -100 7 -14 21 -37 30 -52 10 -14 31 -48 47
-75 16 -26 34 -53 40 -60 30 -35 36 -43 29 -43 -4 0 -3 -4 2 -8 6 -4 32 -36
60 -72 78 -101 92 -118 210 -235 99 -99 206 -188 290 -241 17 -10 32 -21 35
-24 3 -3 22 -14 43 -24 20 -11 37 -23 37 -28 0 -5 4 -7 9 -3 5 3 16 -1 24 -9
8 -8 17 -12 21 -9 3 4 6 0 6 -7 0 -7 3 -10 6 -7 6 6 16 2 89 -36 17 -8 33 -16
38 -16 4 0 22 -7 40 -14 39 -17 89 -31 100 -29 4 1 7 -2 7 -6 0 -4 8 -8 18 -9
9 -1 45 -8 79 -17 34 -8 77 -18 94 -21 18 -3 36 -8 41 -11 4 -3 8 0 8 7 0 9 3
9 14 0 8 -7 46 -13 85 -14 39 -1 71 -4 71 -7 0 -4 275 -5 290 0 3 0 34 3 70 5
72 4 154 13 186 19 12 2 45 7 74 11 29 4 62 9 74 12 12 2 35 5 51 6 17 1 32 5
35 9 4 4 23 9 43 10 20 2 37 7 37 11 0 5 4 6 8 3 8 -5 96 17 195 47 26 8 47
13 47 10 0 -3 6 0 14 6 8 6 18 11 22 9 5 -1 19 3 31 10 12 6 32 14 45 16 13 3
24 5 26 7 1 1 5 2 10 4 4 1 15 5 24 9 9 4 22 9 30 10 7 2 24 8 38 13 14 6 50
21 80 32 30 12 64 26 75 31 107 48 141 64 145 65 3 0 44 20 92 43 48 23 92 42
97 42 6 0 11 4 11 9 0 10 39 27 53 23 4 -1 7 2 7 6 0 5 24 19 53 33 28 13 54
26 57 30 3 3 19 12 35 20 50 25 80 43 87 54 4 6 8 6 8 2 0 -5 13 1 29 12 16
12 32 21 36 21 3 0 13 7 21 15 20 19 15 19 -32 -2 -59 -26 -97 -38 -103 -34
-2 2 -7 -1 -10 -6 -5 -8 -65 -32 -111 -44 -8 -2 -17 -7 -20 -10 -3 -3 -18 -9
-35 -13 l-30 -7 25 21 c14 11 31 20 38 20 6 0 12 4 12 9 0 5 14 14 30 21 17 7
30 16 30 21 0 5 4 9 10 9 10 0 94 55 118 77 7 7 17 13 22 13 5 0 15 6 22 13
17 15 107 77 113 77 3 0 16 10 30 22 23 20 24 23 9 39 -15 17 -26 13 -192 -71
-98 -48 -231 -107 -297 -130 -66 -23 -136 -49 -155 -57 -19 -8 -44 -16 -55
-19 -11 -2 -29 -8 -40 -13 -11 -5 -72 -28 -135 -51 -63 -22 -122 -43 -130 -46
-8 -3 -17 -6 -20 -6 -3 0 -33 -11 -67 -24 -35 -13 -63 -20 -63 -16 0 4 -4 2
-8 -3 -4 -6 -36 -19 -72 -29 -36 -10 -72 -21 -80 -24 -8 -3 -18 -6 -22 -7 -5
-2 -9 -3 -10 -5 -2 -1 -10 -3 -18 -5 -8 -1 -35 -9 -60 -16 -25 -7 -48 -13 -52
-15 -5 -1 -9 -2 -10 -4 -2 -1 -13 -4 -25 -6 -13 -2 -33 -6 -45 -8 -13 -2 -23
-5 -23 -6 0 -2 -33 -10 -60 -15 -11 -2 -20 -4 -20 -5 0 -1 -11 -3 -25 -5 -14
-2 -36 -6 -50 -9 -14 -3 -45 -8 -70 -11 -25 -3 -63 -8 -86 -10 -93 -12 -355
-6 -451 10 -18 3 -48 7 -65 10 -18 4 -44 8 -58 10 -14 2 -45 9 -70 15 -25 7
-49 13 -55 14 -5 1 -16 5 -22 9 -7 5 -17 6 -22 2 -5 -3 -12 -1 -16 5 -3 5 -14
10 -23 10 -9 0 -30 7 -46 15 -15 8 -32 13 -36 10 -5 -3 -14 0 -22 7 -7 7 -20
15 -28 17 -45 12 -80 27 -80 33 0 3 -14 9 -30 13 -17 4 -30 11 -30 15 0 5 -7
7 -15 4 -8 -4 -15 -1 -15 5 0 6 -5 11 -11 11 -6 0 -23 9 -39 20 -15 11 -29 17
-32 14 -3 -2 -11 2 -18 11 -7 8 -18 15 -25 15 -6 0 -20 9 -30 20 -10 11 -22
20 -27 20 -8 0 -89 57 -141 99 -74 60 -166 149 -245 237 -42 45 -162 218 -162
232 0 5 -7 15 -15 22 -8 6 -14 15 -13 18 1 4 -16 43 -37 87 -22 44 -38 85 -37
92 2 6 -2 14 -8 18 -5 3 -10 13 -10 22 0 10 11 4 34 -18 38 -39 89 -83 136
-119 18 -14 38 -30 44 -35 6 -6 47 -35 91 -65 44 -30 82 -58 83 -62 2 -5 10
-8 18 -8 8 0 14 -4 14 -9 0 -5 8 -11 18 -14 9 -4 44 -22 77 -42 73 -43 259
-135 274 -135 6 0 11 -5 11 -11 0 -6 6 -9 14 -6 7 3 18 1 22 -3 5 -5 54 -25
109 -45 55 -20 107 -38 115 -42 8 -3 20 -5 27 -4 6 1 14 -3 18 -8 3 -6 12 -8
20 -4 8 3 15 1 15 -4 0 -5 8 -10 18 -11 21 -2 42 -7 62 -15 16 -6 58 -15 105
-23 17 -3 37 -8 45 -11 8 -3 30 -7 49 -9 18 -2 39 -8 47 -15 11 -9 14 -9 14 0
0 7 4 10 9 7 5 -3 26 -8 47 -11 22 -3 54 -8 71 -11 151 -24 509 -23 698 1 62
8 69 10 82 18 6 4 15 3 18 -3 5 -8 11 -8 19 -1 7 6 27 12 45 13 18 1 34 5 37
9 2 4 13 5 24 2 12 -3 20 0 20 6 0 7 4 10 8 7 5 -3 33 2 63 10 30 8 59 16 66
18 7 1 16 5 19 9 4 4 15 7 24 7 10 0 50 14 91 30 41 17 75 31 77 30 1 0 16 7
32 15 17 9 35 13 40 10 6 -3 10 -2 10 3 0 5 33 26 73 46 94 48 189 107 182
114 -3 3 -22 0 -42 -6 -39 -12 -231 -60 -270 -68 -22 -4 -33 11 -14 18 10 3
118 102 253 231 l93 88 55 -6 c76 -8 118 -14 198 -31 15 -3 45 -7 67 -9 22 -2
42 -4 45 -5 7 -3 70 1 89 5 72 14 137 43 171 75 9 8 28 24 44 35 15 11 40 31
55 45 16 14 48 41 71 60 24 19 49 41 56 48 7 6 16 12 20 12 3 0 14 8 23 18 22
23 188 162 195 162 3 0 -15 -35 -41 -77 -25 -43 -53 -91 -61 -108 -9 -16 -18
-32 -22 -35 -3 -3 -21 -32 -40 -65 -18 -33 -40 -68 -48 -77 -8 -10 -11 -18 -6
-18 5 0 5 -4 -1 -8 -12 -9 -32 -39 -46 -72 -5 -13 -13 -27 -17 -30 -4 -3 -15
-20 -26 -39 l-18 -33 23 8 c13 4 30 7 37 7 6 0 12 5 12 10 0 6 3 7 7 4 3 -4
12 -2 20 4 7 6 13 9 13 6 0 -3 25 3 55 13 30 10 55 16 55 13 0 -3 7 1 17 8 9
8 18 13 20 11 4 -3 105 25 138 39 27 11 303 96 340 105 46 11 181 131 235 208
8 12 20 27 27 34 8 8 20 27 28 43 9 16 20 29 24 29 10 0 27 -75 22 -97 -1 -7
2 -13 7 -13 5 0 8 -10 8 -22 -1 -13 2 -28 6 -34 5 -7 8 -16 7 -20 -1 -5 0 -11
1 -14 1 -3 3 -14 5 -24 13 -71 5 -72 133 19 64 47 141 102 171 122 29 21 59
44 67 51 7 6 15 12 19 12 4 0 12 6 20 13 7 6 39 30 70 52 225 158 290 212 313
258 13 26 24 66 24 89 1 57 -5 118 -12 118 -3 0 -5 10 -6 23 -1 28 -9 83 -19
120 -4 15 -5 27 -3 27 2 0 55 -78 118 -174 63 -96 120 -177 126 -179 10 -5
101 209 96 226 -1 4 2 7 7 7 5 0 12 11 15 25 3 13 11 37 18 52 6 15 12 31 12
35 1 3 4 10 9 14 4 4 7 16 7 26 0 10 4 18 9 18 8 0 25 56 22 73 0 4 4 7 10 7
6 0 9 7 5 15 -3 8 -2 15 2 15 14 0 43 96 49 164 10 115 -27 239 -106 355 -30
43 -518 538 -807 819 -18 17 -31 32 -28 32 5 0 91 -67 104 -80 4 -5 78 -64
118 -95 7 -5 28 -25 47 -42 19 -18 35 -30 35 -27 0 3 6 -1 14 -8 38 -37 77
-68 85 -68 5 0 11 -3 13 -7 2 -5 28 -28 58 -53 30 -25 60 -49 66 -55 6 -5 26
-21 45 -35 18 -14 44 -35 57 -47 12 -13 25 -23 28 -23 3 0 11 -6 19 -12 14
-14 35 -32 210 -172 66 -53 135 -109 153 -124 44 -36 57 -39 41 -11 -7 13 -14
26 -14 29 -1 3 -9 22 -18 44 -9 21 -17 41 -17 43 0 3 -6 19 -14 36 -7 18 -23
52 -33 77 -11 25 -26 62 -34 83 -7 20 -17 37 -22 37 -4 0 -6 4 -2 9 3 5 -6 34
-21 64 -14 31 -27 61 -28 69 -1 7 -10 29 -18 48 -17 36 -30 67 -69 160 -13 30
-34 71 -48 90 -33 46 -117 124 -150 142 -14 7 -28 15 -31 18 -12 12 -93 50
-106 50 -8 0 -14 5 -14 10 0 6 -3 9 -7 8 -7 -1 -61 22 -203 90 -30 15 -57 27
-60 27 -8 2 -98 44 -173 81 -37 19 -68 33 -70 33 -5 -2 -82 37 -85 44 -2 4 -9
7 -16 7 -7 0 -32 10 -57 21 -24 12 -80 37 -124 56 -44 19 -84 39 -90 45 -7 7
-3 7 11 0 12 -6 24 -8 28 -5 3 3 6 1 6 -5 0 -6 8 -11 18 -10 18 0 194 -57 224
-73 10 -5 27 -9 38 -9 11 0 20 -4 20 -10 0 -5 14 -10 30 -10 17 0 30 -5 30
-12 0 -6 3 -9 6 -5 4 3 22 0 41 -8 20 -8 44 -15 54 -15 11 0 19 -4 19 -8 0 -5
6 -9 13 -9 6 0 95 -28 197 -62 102 -35 190 -64 195 -65 6 -2 24 -8 40 -15 52
-20 57 -21 53 -11 -3 10 -226 245 -408 430 -125 127 -159 149 -315 205 -31 12
-117 17 -272 19 -79 0 -143 5 -143 10 0 5 -6 4 -13 -2 -7 -6 -19 -7 -26 -3 -7
5 -28 5 -47 1 -19 -4 -34 -5 -34 -1 0 3 -111 6 -246 6 -135 0 -248 3 -251 8
-2 4 -10 4 -16 1 -7 -4 -8 -3 -4 2 4 4 18 9 30 10 12 1 49 8 81 17 33 9 63 14
67 11 4 -2 9 0 11 6 1 5 15 11 31 12 15 1 27 6 27 11 0 4 4 6 9 3 4 -3 23 -1
42 5 19 6 43 12 54 15 11 2 40 8 65 15 25 6 52 12 60 14 8 2 15 4 15 5 0 1 7
3 15 5 8 2 26 6 40 9 38 8 62 14 98 25 17 5 32 7 32 4 0 -3 7 0 15 7 8 6 19 9
25 5 5 -3 10 -2 10 3 0 6 7 9 16 8 9 0 19 6 22 14 3 8 1 12 -3 8 -4 -4 -19 -2
-34 4 -14 5 -35 12 -46 14 -50 10 -62 13 -87 23 -16 6 -28 8 -28 5 0 -4 -7 -1
-15 6 -8 7 -15 10 -15 7 0 -3 -20 0 -44 7 -25 8 -47 11 -50 8 -4 -3 -6 1 -6 8
0 7 -3 11 -6 7 -3 -3 -29 1 -57 10 -140 41 -224 45 -325 13 -23 -7 -47 -19
-53 -27 -6 -7 -16 -13 -22 -13 -15 0 -141 -63 -145 -72 -2 -5 -12 -8 -23 -8
-10 0 -19 -4 -19 -10 0 -5 -3 -9 -7 -8 -8 2 -78 -32 -123 -60 -25 -16 -25 -16
2 10 14 14 41 36 60 49 18 13 38 27 43 31 6 5 28 22 50 38 22 16 45 34 50 38
6 5 23 17 38 26 24 16 41 46 18 31 -5 -3 -12 -1 -16 4 -3 5 -13 10 -23 10 -16
0 -57 8 -57 11 0 6 -86 5 -109 -1z m302 -138 c-1 -5 -59 -46 -128 -92 -69 -46
-126 -87 -128 -91 -2 -4 -8 -8 -14 -8 -6 0 -26 -12 -45 -26 -34 -26 -83 -28
-83 -3 0 6 -4 8 -8 5 -4 -2 -18 4 -31 14 l-24 18 24 7 c13 4 48 18 77 31 29
13 55 24 58 24 3 0 24 8 47 19 40 17 76 32 87 36 3 1 16 6 30 12 14 6 30 12
35 14 6 2 30 13 55 26 53 26 53 26 48 14z m470 -1 c9 -1 0 -10 -20 -21 -21
-11 -38 -21 -38 -23 0 -1 42 -1 93 2 95 4 116 -5 31 -15 -27 -2 -57 -9 -67
-15 -10 -5 -21 -7 -24 -4 -3 2 -16 1 -30 -5 -13 -5 -39 -11 -56 -13 -35 -5
-67 -12 -100 -21 -18 -5 -17 -2 8 19 17 14 36 26 43 26 6 0 12 5 12 10 0 6 7
10 15 10 9 0 18 7 21 15 4 8 13 15 21 15 8 0 21 7 30 16 9 8 22 13 30 10 8 -3
22 -6 31 -6z m-890 -274 c19 -11 6 -23 -35 -31 -21 -5 -44 -10 -50 -12 -7 -1
-21 -5 -30 -6 -39 -8 -21 -24 29 -25 57 -1 129 -10 137 -17 2 -3 10 0 18 7 8
6 13 7 11 2 -2 -5 7 -20 20 -34 12 -13 22 -27 22 -31 0 -12 -33 -16 -62 -8
-17 5 -28 4 -28 -2 0 -6 -5 -7 -11 -4 -12 8 -99 16 -99 10 0 -2 28 -13 63 -24
34 -11 100 -34 147 -51 47 -17 89 -32 94 -33 19 -4 47 -39 42 -53 -3 -8 -2
-14 3 -14 4 0 8 -7 8 -15 0 -8 -4 -15 -9 -15 -5 0 -5 -8 0 -17 5 -10 10 -36
11 -58 3 -61 9 -74 65 -129 78 -77 186 -216 186 -239 0 -5 -17 5 -37 22 -21
17 -43 31 -50 31 -7 0 -13 4 -13 8 0 8 -83 52 -98 52 -3 0 11 -15 33 -32 22
-18 51 -46 65 -62 14 -16 35 -39 48 -52 12 -13 22 -25 22 -28 0 -3 10 -16 23
-29 45 -47 77 -87 77 -97 0 -5 4 -10 8 -10 11 0 43 -56 35 -64 -3 -3 -2 -6 4
-6 5 0 10 -7 10 -15 0 -21 -2 -20 -44 20 -20 19 -43 35 -49 35 -7 0 -14 4 -16
9 -3 10 -108 73 -108 66 0 -3 15 -20 33 -39 59 -62 187 -227 187 -243 0 -3 7
-15 16 -24 9 -10 18 -30 20 -44 2 -22 0 -24 -12 -14 -26 21 -29 8 -20 -96 2
-33 5 -60 6 -60 1 0 3 -8 5 -17 4 -22 -16 -23 -55 -3 -16 8 -31 11 -34 6 -4
-5 0 -11 6 -14 7 -3 3 -4 -9 -4 -13 1 -23 5 -23 9 0 4 -3 7 -7 6 -5 -1 -36 2
-69 6 -58 7 -62 10 -66 36 -2 15 0 38 5 51 15 36 19 69 9 69 -5 0 -14 -10 -19
-22 l-10 -23 -1 25 c-2 32 -6 52 -14 66 -4 6 -9 21 -12 35 -2 13 -9 35 -14 49
-5 14 -10 27 -10 30 -4 33 -75 179 -102 208 -11 12 -20 24 -20 27 0 12 -104
107 -145 134 -22 14 -42 28 -45 31 -11 11 -73 40 -86 40 -8 0 -14 3 -14 8 0 6
-43 24 -90 36 -8 3 -44 14 -79 25 -35 12 -74 23 -85 25 -12 3 -41 12 -65 20
-50 18 -106 22 -81 6 8 -5 12 -10 8 -10 -4 0 3 -10 15 -22 13 -13 45 -54 72
-93 27 -38 58 -79 67 -89 10 -11 18 -26 18 -33 0 -7 3 -13 8 -13 4 0 19 -21
32 -47 14 -27 30 -55 36 -63 6 -8 22 -44 37 -80 35 -89 39 -102 42 -122 3 -28
10 -31 90 -45 17 -3 33 -11 37 -17 10 -16 22 21 13 42 -9 20 -12 29 -19 59 -2
12 -10 32 -17 45 -7 13 -12 24 -11 26 3 3 -8 54 -17 77 -4 11 -15 42 -23 68
-16 47 -16 48 6 41 11 -4 23 -10 26 -14 5 -7 38 -21 43 -18 13 10 198 -180
222 -227 11 -22 24 -43 30 -47 5 -4 6 -8 2 -8 -4 0 20 -27 55 -60 34 -33 59
-60 55 -60 -4 0 -3 -9 2 -19 13 -24 24 -131 14 -132 -5 0 -39 -2 -77 -4 -78
-4 -168 -14 -174 -19 -2 -2 4 -20 12 -40 8 -20 12 -36 9 -36 -3 0 -1 -6 5 -12
5 -7 15 -30 20 -50 10 -37 10 -38 -17 -38 -44 0 -113 -24 -179 -63 -34 -20
-62 -34 -62 -32 0 3 -9 -3 -19 -12 -21 -19 -25 -22 -86 -68 -22 -16 -45 -34
-51 -40 -6 -5 -38 -32 -70 -60 -32 -27 -109 -100 -170 -161 l-112 -110 -42 70
c-24 39 -53 87 -65 106 -12 19 -36 58 -53 85 -56 90 -58 92 -94 89 -18 -1 -71
-5 -118 -8 -47 -4 -102 -8 -123 -10 -30 -3 -37 -1 -33 10 3 7 1 16 -4 19 -6 4
-10 1 -10 -5 0 -8 -6 -8 -20 0 -11 6 -20 7 -20 2 0 -10 -136 -9 -167 2 -13 4
-23 12 -23 17 0 6 -4 8 -9 5 -13 -8 -161 157 -161 179 0 5 18 30 39 55 35 39
44 44 77 42 21 -2 43 -7 49 -12 7 -6 15 -7 18 -3 4 3 12 1 19 -5 14 -11 113
-26 163 -25 76 2 132 52 164 147 12 36 29 78 37 94 7 15 14 35 14 44 0 9 5 20
10 23 6 4 8 10 5 15 -3 5 -1 11 5 15 5 3 10 13 10 21 0 8 9 34 20 56 11 23 20
47 20 53 0 6 7 20 16 31 8 10 13 15 11 9 -3 -5 -8 -39 -11 -75 -4 -36 -8 -75
-10 -85 -2 -11 -6 -37 -10 -57 -7 -39 9 -55 21 -20 3 9 12 24 19 32 28 35 74
133 75 163 1 17 -2 55 -5 84 l-7 52 40 25 c22 14 45 26 50 26 5 0 13 6 19 13
9 10 6 13 -11 14 -73 2 -151 14 -177 28 -16 8 -48 33 -71 55 -23 22 -45 40
-48 40 -4 0 -28 20 -54 45 -27 25 -50 45 -53 45 -20 0 -37 37 -35 76 1 24 -2
44 -6 44 -5 0 -22 -21 -38 -47 -17 -27 -40 -64 -52 -83 -13 -19 -26 -42 -30
-50 -10 -21 -45 -60 -55 -60 -5 0 -25 -10 -46 -23 -23 -15 -50 -22 -74 -21
-36 2 -92 33 -115 64 -6 9 -31 38 -55 64 -24 27 -46 54 -51 62 -14 24 43 -12
102 -65 86 -76 103 -91 112 -91 11 0 115 70 104 70 -6 1 -35 2 -65 3 -53 2
-58 5 -121 65 l-67 63 24 52 c14 29 33 69 43 89 11 20 17 39 15 41 -3 3 -31
-3 -62 -13 -32 -10 -75 -21 -96 -24 -21 -4 -42 -9 -47 -12 -5 -3 -6 2 -3 10 8
20 43 41 194 117 69 35 127 66 130 69 5 6 34 19 48 20 4 1 14 8 23 16 21 18
93 13 174 -14 58 -19 105 -32 134 -38 8 -2 25 -5 37 -8 13 -4 26 -1 29 4 4 6
3 9 -2 8 -12 -3 -125 53 -119 59 3 3 12 0 21 -7 8 -7 15 -9 15 -6 0 4 6 4 13
-1 28 -18 54 -13 65 12 11 24 17 26 63 23 38 -2 57 -10 79 -30 l30 -27 -20
-46 c-25 -58 -25 -62 3 -69 12 -3 43 -12 69 -20 41 -13 46 -13 41 0 -3 8 -8
14 -12 14 -4 0 -17 9 -29 20 -20 19 -20 21 -4 49 14 25 22 29 54 28 21 -2 38
1 38 5 0 19 59 -16 70 -41 11 -26 30 -41 72 -55 11 -3 31 10 59 39 24 25 45
43 47 40 3 -3 11 0 19 6 7 6 13 9 13 5 0 -3 16 3 35 14 20 11 43 20 52 20 11
0 13 3 8 9 -6 5 -39 12 -75 15 -36 3 -90 9 -120 12 -30 3 -73 7 -95 9 -22 2
-40 4 -40 5 0 1 -16 3 -35 4 -42 3 -127 50 -155 85 -11 14 -25 40 -31 57 -10
29 -9 32 7 29 11 -2 19 -1 19 3 0 4 21 7 48 8 67 1 193 13 203 20 5 3 9 0 9
-7 0 -8 4 -8 13 -2 6 6 35 11 62 13 28 1 64 4 80 6 61 7 211 18 238 17 15 0
27 3 27 6 0 9 83 7 98 -3z m732 -11 c174 -5 189 -6 213 -4 28 1 395 -11 428
-15 33 -3 100 -29 124 -48 43 -34 85 -73 85 -81 0 -4 -21 -6 -47 -3 -68 8
-124 16 -153 21 -14 3 -47 7 -75 10 -27 3 -59 9 -70 12 -11 3 -33 7 -50 9 -16
2 -43 5 -60 7 -16 3 -52 8 -80 11 -27 4 -67 11 -88 16 -49 11 -56 -3 -9 -20
20 -7 50 -22 67 -32 32 -21 35 -21 -40 -2 -11 3 -31 7 -44 10 -14 3 -28 7 -32
9 -4 3 -24 7 -45 11 -22 3 -43 9 -49 12 -5 4 -19 7 -30 9 -11 1 -38 7 -60 13
-58 15 -96 24 -150 35 -49 9 -65 16 -65 25 0 5 12 7 28 5 15 -3 106 -8 202
-10z m-235 -180 c39 -9 76 -17 83 -18 6 0 12 -5 12 -10 0 -6 3 -8 6 -4 10 9
133 -38 169 -66 26 -20 125 -75 125 -69 0 3 6 -2 13 -11 6 -9 19 -17 27 -19 8
-2 19 -7 25 -11 5 -5 28 -19 50 -33 l40 -25 -55 7 c-30 4 -73 8 -95 10 -22 2
-58 6 -80 9 -22 3 -58 7 -80 8 -22 2 -45 5 -50 8 -17 9 -70 10 -60 1 6 -5 64
-30 130 -57 66 -26 131 -52 145 -58 14 -6 27 -11 30 -12 3 -1 14 -5 25 -10 11
-4 43 -17 70 -27 69 -27 220 -107 244 -129 11 -11 25 -19 30 -19 13 0 321
-308 321 -320 0 -8 -92 45 -135 77 -6 5 -26 17 -45 27 -19 11 -59 35 -87 53
-29 18 -55 32 -59 31 -3 -2 -10 5 -15 15 -6 9 -14 15 -18 13 -4 -3 -23 -1 -42
4 -31 8 -74 17 -124 25 -73 11 -102 17 -114 21 -8 2 -30 7 -50 10 -41 6 -69
11 -108 20 -16 4 -36 6 -45 6 -10 0 -18 2 -18 6 0 4 -18 8 -40 8 -39 1 -48 -8
-12 -11 15 -2 271 -85 312 -102 8 -4 17 -7 20 -8 3 -1 39 -12 80 -25 41 -13
77 -26 80 -29 3 -4 12 -7 20 -7 8 0 24 -4 35 -8 61 -23 75 -28 80 -27 9 2 62
-27 77 -43 7 -7 182 -184 388 -393 406 -410 420 -425 449 -515 22 -68 22 -116
0 -163 -12 -25 -24 -45 -28 -45 -3 0 -31 24 -62 53 -31 28 -93 86 -139 127
-45 41 -95 86 -110 100 -15 14 -60 54 -100 90 -41 36 -90 81 -111 100 -21 19
-70 64 -110 100 -39 36 -88 82 -109 103 -27 28 -40 35 -45 26 -5 -8 -4 -10 4
-5 6 4 14 0 18 -10 3 -10 50 -63 104 -118 216 -224 216 -224 227 -268 6 -23 9
-45 6 -50 -3 -4 0 -8 5 -8 6 0 10 -3 9 -7 -1 -5 4 -28 12 -53 7 -25 14 -52 15
-60 1 -8 5 -22 8 -30 3 -8 8 -26 11 -40 4 -22 4 -23 -8 -7 -7 9 -16 17 -20 17
-9 0 -90 62 -94 73 -2 4 -10 7 -17 7 -7 0 -15 4 -17 8 -1 5 -41 37 -88 73 -47
35 -93 71 -102 79 -9 8 -32 24 -50 34 l-33 20 26 -35 c14 -19 55 -74 90 -124
35 -49 67 -91 71 -93 5 -2 8 -8 8 -13 0 -6 5 -15 10 -22 23 -26 110 -152 110
-159 0 -3 6 -13 13 -20 15 -15 55 -112 60 -143 1 -11 5 -24 8 -30 3 -5 4 -41
3 -80 -1 -68 -15 -112 -51 -166 -10 -15 -31 -48 -48 -75 -16 -27 -33 -50 -37
-52 -4 -2 -8 -10 -8 -18 0 -8 -4 -14 -10 -14 -5 0 -12 -11 -16 -24 -3 -14 -12
-27 -20 -30 -7 -3 -13 -2 -12 2 4 14 -55 247 -66 261 -5 7 -15 21 -21 31 -13
25 -156 221 -172 238 -7 7 -20 26 -30 42 -28 47 -34 35 -13 -26 11 -31 21 -66
23 -77 2 -12 9 -33 14 -47 6 -14 14 -41 19 -60 11 -50 11 -50 14 -55 1 -3 4
-9 5 -15 1 -5 4 -13 5 -17 2 -5 4 -12 5 -18 1 -5 4 -17 7 -25 29 -84 39 -121
36 -129 -1 -5 -35 39 -75 98 l-71 106 -6 90 c-3 50 -10 105 -15 124 -6 19 -8
38 -5 42 3 5 1 9 -3 9 -5 0 -15 17 -22 37 -32 86 -145 309 -175 342 -9 10 -16
22 -16 28 0 5 -11 20 -25 33 -13 13 -34 42 -46 64 l-21 41 42 -40 c82 -77 88
-84 82 -89 -3 -3 0 -6 5 -6 6 0 43 -31 82 -70 38 -38 72 -70 75 -70 3 0 -3 13
-12 30 -9 16 -20 30 -24 30 -5 0 -8 5 -8 10 0 6 -17 37 -38 68 -21 32 -41 64
-45 72 -4 8 -16 29 -27 45 -56 84 -102 198 -103 255 -1 58 5 89 18 94 13 5 83
-31 105 -54 3 -3 15 -11 28 -17 68 -39 79 -46 107 -71 8 -7 15 -10 15 -5 0 4
4 4 8 -2 4 -5 15 -16 25 -24 15 -12 17 -11 17 3 0 10 -4 14 -10 11 -5 -3 -10
-2 -10 3 0 4 -28 38 -62 74 -35 36 -103 110 -153 164 -49 53 -129 138 -177
188 -48 50 -85 92 -83 94 2 3 19 -2 37 -10 83 -38 199 -80 205 -75 3 4 -3 10
-13 14 -10 3 -21 9 -24 12 -3 4 -23 19 -45 36 -39 28 -52 39 -78 60 -7 6 -39
30 -72 55 -33 25 -64 48 -70 53 -126 94 -138 107 -186 201 -27 52 -49 99 -49
104 0 6 16 4 38 -3 20 -7 51 -16 67 -18 29 -6 52 -11 105 -23 29 -7 83 -13 58
-7 -9 2 -22 11 -28 19 -7 8 -19 14 -27 14 -8 0 -33 9 -55 20 -23 11 -48 20
-55 20 -7 0 -13 5 -13 10 0 6 -8 10 -18 10 -10 0 -28 10 -39 23 -25 27 -103
147 -103 157 0 4 -9 15 -20 25 -33 30 -23 36 46 30 l67 -6 -34 28 c-41 34 -74
62 -114 97 -35 30 -38 30 90 1z m1203 -447 c2 -5 10 -8 17 -8 7 0 40 -13 72
-29 32 -16 119 -58 193 -94 133 -65 220 -129 220 -163 0 -8 4 -14 8 -14 4 0
15 -21 25 -47 17 -44 16 -46 0 -31 -10 8 -35 24 -56 36 -20 12 -43 26 -50 32
-25 22 -279 190 -286 190 -4 0 -16 9 -26 20 -10 11 -21 17 -25 15 -5 -3 -10
-1 -12 4 -1 5 -51 41 -110 80 -60 39 -108 73 -108 76 0 7 134 -59 138 -67z
m-1178 -937 c14 -5 34 -13 45 -17 11 -4 22 -8 25 -9 55 -19 100 -48 105 -68
13 -52 9 -146 -12 -287 -3 -25 -7 -55 -7 -67 -1 -13 -3 -23 -6 -23 -5 0 -10
-44 -13 -122 -1 -16 -4 -28 -7 -28 -4 0 -6 -10 -5 -22 1 -13 0 -27 -4 -33 -3
-5 -6 -23 -7 -40 -1 -16 -3 -30 -4 -30 0 0 -3 -20 -6 -45 -10 -93 -11 -105
-14 -110 -1 -3 -2 -8 -1 -13 3 -18 -41 -87 -66 -105 -35 -24 -209 -112 -223
-112 -11 0 -5 54 8 74 3 6 8 20 10 31 4 25 7 36 15 55 5 13 14 49 22 85 2 6 8
30 15 55 16 61 20 80 14 80 -3 0 -12 -16 -20 -35 -8 -19 -19 -35 -24 -35 -6 0
-10 -5 -10 -12 0 -6 -11 -26 -26 -45 -14 -18 -21 -33 -17 -33 4 0 3 -4 -3 -8
-12 -8 -80 -111 -102 -153 -7 -15 -22 -36 -33 -47 -10 -12 -19 -24 -19 -27 0
-16 -90 -136 -139 -185 -75 -74 -113 -102 -190 -142 -36 -18 -69 -37 -73 -43
-4 -5 -8 -7 -8 -2 0 4 -13 1 -30 -8 -16 -9 -30 -13 -30 -10 0 3 -10 -1 -23
-10 -12 -8 -32 -16 -44 -18 -12 -1 -27 -8 -35 -14 -7 -7 -25 -14 -40 -17 -25
-4 -23 1 38 97 35 56 67 107 71 112 5 6 32 51 62 100 30 50 65 105 78 123 13
17 20 32 16 32 -4 0 -3 4 3 8 9 7 101 150 134 210 8 15 17 29 21 32 3 3 16 23
29 45 13 22 28 43 33 46 5 4 5 9 -1 12 -5 4 -28 -13 -50 -36 -22 -23 -54 -53
-69 -67 -16 -14 -68 -61 -115 -104 -70 -65 -100 -85 -167 -111 -44 -18 -81
-31 -81 -29 0 1 -27 -8 -59 -21 -33 -13 -62 -20 -65 -17 -3 3 -6 0 -6 -7 0 -7
-4 -10 -8 -7 -4 2 -33 -6 -65 -18 -31 -13 -59 -21 -62 -18 -3 3 -5 0 -5 -7 0
-7 -5 -9 -10 -6 -6 4 -17 1 -25 -5 -8 -6 -21 -10 -29 -8 -12 2 -6 13 22 44 20
22 59 67 86 100 28 32 57 66 65 75 9 9 25 27 35 40 108 134 160 187 248 249
35 24 95 68 134 97 40 29 74 53 78 53 3 0 21 14 39 31 l32 32 -49 -26 c-27
-15 -53 -24 -58 -21 -4 3 -8 2 -8 -3 0 -4 -15 -14 -32 -22 -18 -7 -51 -22 -73
-32 -22 -10 -85 -38 -140 -63 -100 -45 -102 -46 -294 -223 -49 -46 -69 -55
-49 -23 7 11 16 20 20 20 5 0 8 6 8 14 0 8 3 16 8 18 4 2 14 13 22 24 21 30
131 176 147 194 50 60 73 89 73 94 0 20 69 77 132 110 106 56 246 131 433 234
44 24 97 51 117 60 37 17 52 40 38 62 -22 35 34 113 93 128 31 8 128 -6 187
-27z m-1660 -311 c0 -5 -4 -10 -10 -10 -5 0 -10 5 -10 10 0 6 5 10 10 10 6 0
10 -4 10 -10z m244 -32 c-4 -13 -9 -28 -11 -34 -2 -6 15 -17 39 -24 24 -7 47
-17 51 -20 8 -7 -155 -93 -169 -90 -4 1 -10 -2 -13 -7 -3 -5 -24 -17 -46 -27
-22 -10 -76 -36 -120 -57 -45 -22 -86 -39 -93 -39 -7 0 -12 -4 -12 -10 0 -6
-3 -9 -7 -8 -5 0 -16 -2 -26 -7 -10 -4 -20 -6 -22 -4 -5 6 144 124 223 177 34
24 62 44 62 46 0 2 -21 -1 -47 -6 -88 -16 -93 -17 -93 -13 0 9 192 112 225
120 6 1 21 7 35 13 14 6 26 11 28 11 2 1 0 -9 -4 -21z m93 -165 c-3 -5 -32
-65 -65 -134 -33 -69 -66 -128 -74 -131 -7 -3 -60 -22 -118 -42 -58 -21 -114
-41 -125 -46 -28 -11 -185 -67 -214 -75 -16 -5 -21 -4 -17 4 4 6 13 11 21 11
7 0 20 6 27 13 15 14 16 14 258 185 222 156 214 151 264 189 43 34 50 38 43
26z m1629 -415 c-3 -28 -11 -77 -17 -107 -6 -31 -12 -61 -13 -68 -1 -7 -5 -16
-9 -19 -4 -4 -7 -15 -7 -24 0 -10 -11 -43 -25 -74 -14 -31 -22 -56 -19 -56 3
0 -4 -13 -16 -30 -35 -50 17 -33 74 24 30 30 116 158 116 173 0 7 5 13 10 13
6 0 10 6 10 14 0 8 4 17 9 21 6 3 1 -27 -11 -67 -11 -40 -21 -78 -22 -85 -1
-7 -5 -16 -9 -19 -4 -4 -7 -13 -7 -20 0 -7 -5 -25 -12 -41 -6 -15 -12 -35 -14
-43 -1 -8 -22 -64 -46 -124 -47 -120 -74 -154 -163 -212 -17 -10 -34 -22 -40
-27 -5 -4 -37 -28 -70 -53 -33 -24 -71 -55 -84 -67 -21 -19 -19 -11 14 48 21
39 42 74 47 80 4 5 8 17 8 27 0 10 5 18 10 18 6 0 10 8 10 18 0 10 4 22 9 28
15 16 97 240 104 282 2 12 6 24 10 28 11 11 -4 26 -16 16 -7 -6 -29 -19 -49
-31 -71 -40 -103 -58 -138 -79 -55 -34 -55 -26 1 30 28 28 76 83 107 122 31
39 59 73 63 76 5 5 80 111 99 140 5 8 25 39 45 68 19 28 33 52 30 52 -4 0 -3
5 0 10 13 20 16 9 11 -42z m-1553 -115 c-39 -35 -266 -249 -304 -286 -15 -15
-30 -23 -33 -18 -4 5 -2 11 2 13 4 1 30 39 56 83 61 102 105 143 208 193 99
49 112 51 71 15z m-343 -60 c2 -2 -8 -25 -23 -51 -15 -26 -40 -72 -55 -102
-15 -30 -29 -57 -32 -60 -3 -3 -16 -30 -28 -59 l-23 -55 26 -23 c29 -28 27
-36 -32 -100 -21 -22 -58 -65 -83 -94 -25 -29 -60 -68 -77 -88 -18 -20 -33
-39 -33 -43 0 -5 -5 -8 -10 -8 -9 0 -7 30 4 65 2 6 7 25 11 43 4 18 12 35 16
38 5 3 7 10 3 15 -3 5 0 17 8 26 7 9 12 17 10 17 -2 1 1 12 6 26 5 14 10 28
11 32 1 9 43 86 73 135 17 29 17 31 1 28 -10 -2 -19 -4 -20 -5 -2 -2 -6 -3
-10 -4 -5 -1 -18 -7 -30 -14 -25 -14 -31 -2 -10 20 6 7 30 40 52 73 22 33 42
62 45 65 3 3 25 31 49 63 24 32 51 62 60 67 14 8 79 4 91 -7z m2190 -43 c0 -5
-2 -10 -4 -10 -3 0 -8 5 -11 10 -3 6 -1 10 4 10 6 0 11 -4 11 -10z m-3 -85
c-1 -36 -5 -65 -8 -65 -4 0 -6 -6 -6 -12 2 -24 -15 -98 -22 -98 -4 0 -8 -7 -9
-15 -1 -8 -3 -22 -4 -30 -1 -8 -5 -12 -9 -10 -4 3 -2 24 3 47 6 24 11 54 13
68 3 25 14 91 20 120 2 8 4 25 4 38 1 12 5 22 10 22 5 0 9 -29 8 -65z m-1612
-120 c-32 -30 -63 -56 -69 -56 -6 -1 -20 -3 -31 -5 -11 -2 -38 -6 -60 -9 -42
-6 -50 -7 -100 -18 -54 -11 -109 -18 -103 -12 3 3 17 8 32 11 15 2 50 14 79
25 28 12 63 23 77 26 13 2 30 9 37 15 7 6 13 8 13 4 0 -4 13 0 30 9 16 8 33
16 37 17 5 1 28 12 53 25 67 33 68 28 5 -32z m654 -211 c-76 -83 -206 -206
-231 -216 -15 -7 -28 -17 -28 -21 0 -5 -4 -6 -9 -2 -5 3 -12 1 -16 -5 -4 -6
-11 -8 -16 -5 -5 4 -9 2 -9 -2 0 -16 -168 -23 -205 -9 -16 6 -9 12 36 33 29
15 56 27 59 28 8 2 112 51 235 110 61 29 130 67 155 84 55 38 60 38 29 5z"/>
<path d="M6165 7169 c-47 -47 -78 -74 -150 -132 -45 -36 -205 -138 -205 -131
0 4 -9 -1 -20 -11 -11 -10 -20 -14 -20 -9 0 5 -4 3 -9 -4 -4 -7 -17 -14 -29
-15 -12 0 -24 -7 -26 -14 -6 -14 8 -13 79 5 22 6 53 13 68 16 15 3 55 19 89
35 34 17 63 31 65 31 8 0 1 -18 -14 -36 -20 -23 -53 -81 -53 -94 0 -15 85 16
140 49 46 28 170 147 170 163 0 4 7 14 16 23 15 15 18 14 34 -12 25 -40 99
-118 105 -111 3 3 1 18 -6 34 -19 50 -30 189 -16 211 4 6 -9 13 -36 18 -54 10
-50 9 -62 16 -5 4 -23 9 -40 13 -26 5 -36 -1 -80 -45z"/>
<path d="M5480 7091 c0 -7 -14 -40 -30 -73 -33 -65 -94 -127 -125 -129 -31 -2
-100 -1 -100 1 0 1 -9 3 -20 5 -11 2 -33 6 -50 10 -16 3 -37 6 -45 7 -8 0 -21
5 -27 11 -7 5 -13 7 -13 4 0 -4 -19 1 -42 9 l-43 14 47 -45 c27 -25 51 -45 55
-45 5 0 24 -14 43 -31 62 -54 127 -81 202 -84 37 -2 70 1 74 6 3 5 2 8 -3 7
-11 -3 -103 35 -103 43 0 4 15 6 33 6 48 -2 127 13 127 24 0 5 -9 9 -19 9 -28
0 -35 17 -11 23 42 11 86 185 58 229 -6 10 -8 10 -8 -1z"/>
<path d="M7810 7166 c0 -2 8 -10 18 -17 15 -13 16 -12 3 4 -13 16 -21 21 -21
13z"/>
<path d="M3740 7698 c-25 -5 -52 -11 -60 -14 -8 -3 -16 -5 -17 -5 -1 0 -53
-25 -115 -56 -62 -30 -123 -56 -135 -57 -13 0 -23 -5 -23 -10 0 -21 -19 10
-23 39 -11 64 -15 67 -55 32 -64 -57 -162 -162 -168 -179 -3 -10 -10 -18 -15
-18 -5 0 -9 -7 -9 -16 0 -8 -4 -12 -10 -9 -5 3 -10 -3 -10 -15 0 -12 -4 -18
-10 -15 -5 3 -10 1 -10 -5 0 -7 -14 -33 -32 -58 -57 -84 -65 -97 -82 -129 -17
-34 -32 -43 -33 -20 -2 41 -14 154 -19 173 -3 13 -12 21 -22 20 -12 -2 -31
-53 -73 -194 -31 -106 -54 -194 -51 -197 3 -3 1 -5 -5 -5 -5 0 -10 -6 -10 -12
0 -7 -6 -33 -13 -58 -8 -25 -14 -48 -14 -52 -1 -3 -5 -10 -9 -14 -13 -13 -27
18 -17 37 5 9 6 20 2 23 -6 7 -9 46 -11 154 -1 33 -22 42 -27 11 -2 -11 -30
-153 -50 -244 -5 -25 -22 -110 -30 -155 -4 -19 -8 -45 -8 -57 -2 -41 -22 -24
-36 30 -8 28 -14 54 -15 57 0 3 -4 11 -8 18 -5 7 -11 24 -13 39 -6 34 -12 43
-28 43 -14 0 -16 -15 -19 -193 -1 -71 1 -131 5 -133 4 -2 5 -12 3 -22 -2 -10
1 -40 6 -68 5 -27 12 -65 15 -84 3 -19 7 -42 10 -50 3 -8 8 -26 11 -40 6 -32
9 -42 15 -60 3 -8 18 -53 33 -100 15 -47 34 -101 42 -120 25 -59 137 -285 143
-290 4 -3 17 -25 31 -50 13 -25 26 -47 29 -50 3 -3 30 -41 60 -85 30 -44 59
-85 65 -91 5 -7 26 -31 45 -55 45 -56 143 -154 199 -199 24 -19 48 -40 55 -46
41 -38 291 -181 323 -185 5 0 23 -7 42 -15 18 -8 39 -14 45 -14 7 0 17 -5 24
-12 7 -7 12 -9 12 -5 0 4 16 1 35 -7 19 -8 35 -13 35 -11 0 3 12 0 28 -6 15
-6 41 -12 57 -14 17 -2 41 -6 55 -9 114 -24 317 -34 430 -23 84 9 270 70 270
89 0 5 5 8 11 8 22 0 169 112 169 129 0 4 -12 8 -27 9 -16 1 -48 4 -73 8 -25
3 -67 7 -95 9 -119 11 -136 13 -140 17 -5 5 47 33 252 138 123 63 131 69 118
87 -9 11 -14 13 -15 5 0 -7 -4 -10 -10 -7 -5 3 -18 1 -28 -4 -11 -6 -30 -12
-43 -15 -13 -2 -44 -9 -69 -15 -132 -30 -191 -35 -355 -35 -82 1 -166 3 -185
7 -87 13 -166 28 -180 34 -8 3 -24 7 -36 8 -70 10 -370 144 -418 188 -11 9
-24 17 -29 17 -5 0 -18 10 -28 22 -11 11 -19 18 -19 14 0 -20 -183 161 -242
239 -48 63 -120 204 -133 260 -2 6 -10 37 -18 70 -9 33 -18 74 -21 90 -3 17
-8 46 -11 65 -4 19 -8 68 -10 109 -2 40 -7 76 -10 79 -2 3 0 11 6 19 9 10 8
13 0 13 -7 0 -9 5 -6 11 4 6 8 50 10 99 2 49 6 97 9 107 3 10 8 34 10 53 8 58
16 103 28 145 6 22 11 43 10 48 -1 4 3 7 9 7 5 0 8 4 5 8 -3 5 11 53 30 108
19 54 38 108 41 119 3 11 10 25 14 31 5 6 23 37 40 69 17 31 35 63 40 69 68
86 113 137 146 168 56 51 193 148 209 148 8 0 14 4 14 8 0 4 17 14 38 21 20 8
56 22 80 32 23 11 56 22 72 26 17 3 33 9 36 14 2 4 11 6 19 2 8 -3 15 -3 15 0
0 11 -28 13 -70 5z"/>
<path d="M1982 6102 c1 -4 -4 -27 -12 -52 -7 -25 -14 -54 -16 -65 -1 -11 -3
-22 -5 -25 -1 -3 -3 -9 -4 -15 -2 -5 -4 -12 -5 -15 -2 -7 -10 -40 -14 -65 -2
-11 -11 -56 -20 -100 -24 -118 -23 -116 -30 -169 -4 -27 -9 -52 -11 -55 -1 -3
-6 -30 -10 -60 -4 -30 -9 -63 -11 -75 -3 -12 -7 -32 -10 -46 -3 -14 -11 -45
-19 -70 -8 -25 -14 -49 -12 -53 1 -5 -11 -15 -26 -24 -20 -10 -25 -18 -19 -26
6 -7 17 -34 25 -62 32 -103 68 -199 80 -213 10 -13 6 -14 -33 -8 -43 7 -91 19
-137 37 -13 5 -23 5 -23 0 0 -13 112 -225 123 -232 5 -3 8 -8 6 -10 -5 -9 13
-49 23 -49 6 0 9 -3 6 -6 -4 -3 9 -33 28 -66 19 -33 34 -62 34 -64 0 -3 -18
-4 -40 -2 -22 1 -40 5 -40 8 0 3 -12 5 -27 4 -16 0 -43 3 -61 7 -37 8 -50 -4
-29 -26 16 -16 97 -178 102 -204 2 -9 4 -16 5 -16 2 0 7 -20 15 -60 3 -16 8
-32 11 -34 2 -2 -5 -14 -16 -26 l-21 -22 34 -64 c58 -110 114 -277 103 -305
-3 -8 -2 -14 2 -14 12 0 6 -81 -7 -89 -13 -8 -5 -41 10 -41 5 0 9 -5 9 -11 0
-19 181 -207 259 -269 24 -19 53 -44 65 -55 12 -11 29 -24 38 -30 29 -19 273
-218 286 -233 6 -9 12 -12 12 -8 0 4 6 1 14 -6 22 -20 135 -110 226 -178 18
-14 39 -31 46 -37 7 -7 17 -13 23 -13 6 0 11 -4 11 -10 0 -5 7 -10 16 -10 8 0
12 -4 9 -10 -3 -5 1 -10 9 -10 9 0 16 -3 16 -8 0 -4 18 -18 40 -32 22 -14 40
-28 40 -32 0 -5 5 -8 11 -8 7 0 20 -10 30 -22 11 -11 19 -18 19 -15 0 6 96
-63 165 -119 17 -13 35 -24 42 -24 6 0 13 -4 15 -8 4 -12 275 -192 288 -192 5
0 10 -5 10 -11 0 -5 4 -8 9 -5 5 4 11 3 13 -2 9 -23 361 -202 374 -190 2 2
-22 26 -53 54 -126 109 -290 299 -309 357 -4 9 -10 17 -14 17 -4 0 -15 19 -25
43 -11 23 -23 48 -29 56 -6 7 -11 18 -13 25 -2 6 -12 44 -22 83 -11 40 -18 82
-16 93 2 11 0 20 -5 20 -4 0 -4 16 0 35 4 19 6 35 3 35 -3 0 -1 6 4 13 6 6 13
23 16 37 8 33 48 52 76 36 50 -28 227 -136 236 -143 6 -5 25 -15 43 -22 17 -7
32 -18 32 -24 0 -6 3 -8 6 -4 3 3 23 -5 44 -18 21 -13 41 -21 44 -18 3 4 6 1
6 -6 0 -7 4 -10 9 -7 5 4 11 3 13 -2 3 -8 94 -53 104 -51 4 0 10 -3 13 -8 3
-5 42 -25 86 -43 44 -19 82 -37 85 -40 3 -3 12 -6 20 -8 8 -1 24 -7 35 -12 16
-7 84 -30 105 -35 5 -2 29 -11 58 -22 9 -4 22 -8 27 -9 6 -1 13 -3 18 -4 4 -1
10 -3 15 -4 4 -1 13 -5 20 -9 6 -5 12 -6 12 -4 0 3 17 1 38 -4 20 -5 46 -12
57 -14 11 -3 35 -6 53 -7 18 -1 35 -4 37 -7 8 -13 202 -3 265 14 88 23 90 23
107 -2 14 -21 13 -23 -34 -44 -26 -12 -50 -21 -52 -20 -2 2 -7 -1 -10 -6 -3
-5 -109 -61 -236 -123 -126 -62 -233 -118 -236 -123 -3 -5 -10 -9 -15 -9 -16
0 -94 -38 -94 -46 0 -18 305 -19 328 -1 1 1 11 3 22 4 11 1 22 4 25 5 6 3 6 3
55 14 19 5 40 13 47 18 7 5 16 7 22 4 5 -3 11 -2 13 4 1 5 15 11 31 12 15 1
27 6 27 10 0 4 6 8 13 8 7 0 38 12 68 26 30 15 95 44 144 66 50 22 110 50 135
61 81 36 93 32 27 -11 -50 -32 -232 -160 -303 -214 -28 -21 -54 -38 -58 -38
-4 0 -19 -11 -34 -25 -15 -14 -32 -25 -38 -25 -6 0 -11 -6 -11 -12 0 -7 12
-13 28 -13 15 0 25 3 23 6 -2 4 16 9 41 12 24 4 69 15 99 26 30 10 57 16 60
13 3 -3 6 -1 6 5 0 5 6 10 13 10 62 2 697 321 729 367 4 6 8 7 8 3 0 -5 12 1
27 12 14 12 28 19 30 17 7 -7 -17 -46 -27 -46 -6 0 -10 -7 -10 -15 0 -8 -4
-15 -10 -15 -5 0 -10 -4 -10 -10 0 -9 -49 -80 -90 -127 -10 -13 -16 -23 -13
-23 3 0 -11 -20 -31 -44 -20 -24 -36 -48 -36 -53 0 -5 -16 -25 -35 -45 -21
-21 -31 -39 -25 -43 5 -3 10 -1 10 4 0 6 6 11 13 11 6 0 35 16 62 35 28 19 58
41 69 48 24 16 208 157 222 171 6 6 40 36 75 66 71 60 398 385 469 466 72 81
142 164 179 211 18 23 38 43 42 43 5 0 9 5 9 10 0 6 9 21 21 33 11 12 52 65
92 117 39 52 76 100 82 105 5 6 15 18 20 27 25 41 140 204 148 209 5 3 8 8 6
10 -2 3 23 43 110 179 77 121 231 441 245 510 2 8 6 22 9 30 3 8 10 34 15 57
11 48 0 48 -24 0 -9 -18 -20 -34 -24 -37 -4 -3 -15 -20 -25 -39 -9 -19 -21
-39 -26 -45 -49 -61 -59 -75 -59 -80 0 -4 -12 -18 -26 -31 -15 -14 -23 -25
-19 -25 5 0 -3 -12 -17 -27 -21 -24 -108 -136 -218 -283 -14 -18 -29 -38 -35
-44 -5 -6 -46 -58 -89 -116 -44 -58 -82 -107 -85 -110 -4 -3 -28 -34 -56 -70
-59 -77 -60 -78 -86 -110 -11 -14 -30 -38 -42 -53 -12 -15 -30 -38 -40 -50
-10 -12 -31 -38 -45 -57 -50 -65 -113 -128 -155 -156 -23 -16 -44 -31 -47 -34
-16 -18 -110 -79 -110 -72 0 5 12 22 28 40 127 144 214 264 249 341 27 61 29
125 5 198 -13 40 -32 50 -32 17 0 -8 -4 -14 -9 -14 -5 0 -12 -11 -15 -24 -3
-13 -26 -51 -51 -85 -25 -33 -45 -66 -45 -72 0 -5 -4 -7 -10 -4 -5 3 -10 2
-10 -3 0 -14 -134 -152 -148 -152 -7 0 -12 -4 -12 -10 0 -11 -170 -125 -200
-135 -11 -3 -20 -11 -20 -16 0 -5 -5 -9 -12 -9 -6 0 -39 -13 -72 -29 -75 -35
-99 -45 -108 -43 -5 1 -8 -2 -8 -6 0 -4 -8 -8 -17 -9 -10 -1 -45 -11 -78 -23
-33 -12 -71 -24 -84 -26 -13 -3 -39 -11 -57 -19 -19 -8 -34 -12 -34 -10 0 2
-18 -2 -40 -10 -22 -8 -44 -15 -48 -15 -4 0 -23 -5 -42 -10 -38 -10 -46 -12
-160 -35 -142 -29 -162 -32 -292 -49 -18 -2 -61 -7 -96 -10 -35 -3 -67 -8 -72
-11 -5 -3 -11 -1 -15 5 -4 6 -12 7 -18 3 -17 -11 -73 -13 -247 -12 -209 1
-220 2 -220 12 0 4 -4 6 -8 3 -4 -3 -28 0 -53 6 -24 6 -50 11 -56 11 -7 0 -13
4 -13 9 0 4 -3 7 -7 6 -12 -3 -85 22 -110 38 -13 8 -23 11 -23 8 0 -4 -9 1
-21 12 -27 24 -52 72 -44 84 3 6 1 10 -4 10 -6 0 -11 19 -11 41 0 35 6 47 37
75 20 18 40 31 45 28 4 -3 8 -1 8 3 0 8 32 14 93 17 15 0 27 5 27 9 0 5 3 6 8
3 4 -2 43 4 87 15 44 11 88 22 98 24 9 2 22 7 27 10 5 3 20 8 32 10 13 3 66
22 118 42 52 21 97 38 100 38 17 4 166 81 172 90 4 5 8 7 8 3 0 -7 34 11 120
62 8 5 30 17 48 26 17 9 32 20 32 24 0 5 10 12 22 16 20 6 125 71 138 84 3 3
30 21 60 40 54 34 80 53 105 78 8 6 16 12 20 12 3 0 21 15 40 34 18 19 37 31
41 27 4 -3 4 -1 0 6 -5 8 -32 -1 -94 -33 -48 -24 -92 -44 -99 -44 -6 0 -13 -4
-15 -9 -9 -25 -445 -199 -538 -215 -14 -3 -25 -5 -25 -6 0 -2 -16 -5 -60 -14
-16 -3 -41 -8 -55 -11 -53 -12 -86 -17 -112 -17 -16 0 -28 -3 -28 -7 0 -4 -15
-7 -32 -8 -34 -2 -120 -10 -198 -18 -97 -11 -642 -15 -661 -4 -13 7 -19 6 -19
-1 0 -7 -6 -8 -18 -1 -10 5 -32 10 -48 10 -16 0 -40 2 -54 5 -14 4 -41 9 -60
12 -19 3 -44 8 -55 11 -21 7 -24 8 -65 16 -27 6 -172 53 -205 67 -61 25 -242
116 -253 127 -7 7 -17 13 -22 13 -19 0 -224 164 -297 237 -86 86 -193 216
-193 233 0 6 -7 13 -15 16 -8 4 -15 10 -15 15 0 4 -13 27 -29 51 -36 54 -153
278 -145 278 4 0 2 6 -4 13 -9 11 -52 115 -58 142 -2 6 -12 33 -22 60 -11 28
-20 53 -21 58 -1 15 -13 62 -18 77 -3 8 -8 24 -10 35 -2 11 -6 27 -10 35 -3 8
-7 22 -8 30 -1 8 -5 26 -8 40 -17 76 -36 185 -42 240 -2 14 -4 25 -5 25 -3 0
-13 91 -14 137 0 27 -3 48 -6 48 -3 0 -6 21 -7 48 -8 240 -12 322 -16 329 -2
4 -1 17 3 28 4 11 4 32 -1 48 -5 17 -4 27 3 27 7 0 7 4 0 13 -13 15 -13 14 -3
60 5 20 6 39 2 41 -8 5 -6 109 2 123 4 6 0 13 -8 17 -8 3 -14 2 -13 -2z"/>
<path d="M8292 5085 c-18 -8 -35 -14 -37 -14 -15 -1 -61 -15 -70 -21 -5 -4
-28 -13 -50 -20 -22 -7 -50 -19 -62 -26 -13 -8 -23 -12 -23 -10 0 3 -22 -6
-49 -19 -27 -14 -54 -25 -60 -25 -6 0 -11 -4 -11 -10 0 -5 -6 -10 -13 -10 -7
0 -34 -13 -60 -30 -26 -16 -47 -27 -47 -23 0 3 -9 -2 -20 -12 -11 -10 -20 -15
-20 -11 0 4 -10 -2 -22 -14 -12 -11 -27 -20 -34 -20 -7 0 -14 -3 -16 -7 -1 -5
-32 -28 -67 -51 -90 -61 -123 -85 -139 -99 -7 -7 -17 -13 -21 -13 -4 0 -16 -9
-28 -19 -21 -20 -99 -63 -120 -67 -13 -2 -29 50 -38 121 -2 17 -6 42 -9 58
-13 61 -17 83 -21 107 -5 29 -13 65 -15 65 -1 0 -3 12 -5 26 -2 14 -8 44 -14
66 -10 38 -13 40 -46 39 -19 0 -35 -5 -35 -9 0 -5 -4 -6 -8 -3 -7 4 -37 -1
-107 -20 -41 -11 -32 -7 -155 -57 -41 -17 -77 -33 -80 -36 -5 -7 -82 -49 -117
-66 -13 -5 -23 -13 -23 -17 0 -5 -7 -8 -15 -8 -8 0 -15 -4 -15 -9 0 -5 -8 -12
-18 -15 -10 -4 -27 -14 -38 -24 -10 -9 -36 -28 -56 -42 -21 -14 -38 -29 -38
-33 0 -5 4 -6 9 -3 17 11 66 29 74 28 4 -1 7 2 7 8 0 5 4 10 10 10 5 0 35 12
67 27 32 14 60 27 63 27 5 1 56 21 95 36 42 17 90 35 100 37 6 1 17 4 25 5 8
2 20 6 25 10 10 6 36 12 105 24 64 11 73 10 76 -11 5 -31 15 -106 19 -144 4
-30 9 -60 21 -126 2 -11 6 -36 9 -55 10 -52 46 -111 80 -130 30 -17 97 -21
111 -7 4 4 15 7 25 7 9 0 19 4 21 8 2 4 25 20 52 36 26 15 57 37 67 47 10 10
19 16 19 12 0 -5 4 -3 8 2 26 36 345 271 474 350 70 43 251 147 286 165 23 12
42 24 42 26 0 8 -36 3 -68 -11z"/>
<path d="M8520 5053 c0 -8 -16 -110 -26 -168 -3 -16 -7 -41 -9 -55 -9 -61 -16
-106 -20 -120 -3 -8 -7 -33 -10 -55 -4 -22 -9 -49 -12 -60 -4 -11 -7 -24 -8
-30 -2 -26 -17 -103 -25 -130 -5 -16 -11 -43 -14 -60 -2 -16 -5 -30 -6 -30 -2
0 -6 -17 -14 -60 -12 -62 -106 -411 -116 -427 -6 -10 -10 -24 -10 -32 0 -16
-86 -280 -101 -311 -6 -12 -11 -27 -13 -35 -1 -8 -10 -33 -20 -55 -10 -22 -19
-47 -21 -55 -2 -8 -4 -16 -5 -17 -2 -2 -4 -7 -5 -13 -1 -5 -4 -13 -5 -17 -1
-5 -2 -11 -1 -15 0 -5 -3 -8 -9 -8 -5 0 -10 -5 -10 -11 0 -6 -6 -25 -14 -42
-61 -143 -86 -198 -137 -305 -33 -68 -59 -126 -59 -130 0 -4 22 27 49 68 28
41 54 80 58 85 5 6 20 28 33 50 13 22 28 42 32 43 4 2 8 8 8 13 0 5 12 28 27
52 46 73 122 207 117 207 -2 0 6 17 19 38 26 41 117 244 138 307 7 22 16 45
20 50 3 6 14 40 25 78 20 70 33 86 35 40 1 -16 3 -39 5 -53 2 -14 5 -43 8 -65
11 -106 29 -256 52 -445 6 -50 11 -98 13 -126 1 -11 31 -16 31 -5 13 153 23
251 35 346 2 17 7 62 10 100 3 39 8 88 11 109 3 22 7 60 9 85 3 25 7 66 9 91
8 68 17 159 21 199 11 107 18 166 20 169 2 2 74 -290 82 -330 1 -10 15 -66 29
-124 14 -59 28 -114 29 -123 2 -9 4 -16 5 -16 1 0 4 -11 7 -25 7 -38 11 -55
13 -57 4 -4 7 -22 9 -39 1 -21 20 -8 19 14 0 9 3 53 7 97 13 139 8 422 -10
514 -2 11 -7 41 -11 68 -3 26 -8 57 -11 68 -2 11 -6 31 -9 45 -7 35 -45 182
-51 200 -3 8 -7 20 -8 25 -16 67 -91 253 -159 398 -42 88 -56 110 -56 90z"/>
<path d="M8210 4653 c0 -5 -26 -36 -58 -69 -72 -78 -98 -111 -160 -204 -71
-108 -126 -193 -132 -205 -3 -5 -18 -30 -34 -55 -27 -42 -65 -106 -121 -205
-12 -22 -53 -98 -90 -170 -93 -179 -138 -259 -147 -263 -4 -2 -8 -8 -8 -13 0
-19 -235 -390 -252 -397 -5 -2 -8 -9 -8 -16 0 -7 -10 -25 -22 -39 -13 -14 -43
-54 -68 -89 -58 -81 -55 -77 -87 -118 -16 -19 -48 -60 -71 -90 -23 -30 -54
-69 -69 -87 -16 -17 -39 -45 -53 -63 -31 -39 -106 -124 -142 -162 -16 -16 -28
-31 -28 -34 0 -3 -14 -17 -30 -31 -17 -14 -35 -34 -41 -44 -11 -21 130 65 144
88 4 7 12 13 17 13 9 0 35 19 64 46 6 6 18 15 27 20 9 5 33 23 54 39 81 64
215 174 228 187 8 7 31 26 52 43 21 16 50 41 64 55 14 14 44 40 66 59 47 40
117 104 279 255 132 123 162 146 126 96 -13 -19 -17 -30 -9 -25 44 26 117 85
158 127 51 55 161 214 161 235 0 7 5 13 12 13 6 0 8 3 5 7 -4 3 -3 11 2 17 27
33 116 291 140 406 6 30 14 66 17 80 3 14 7 34 9 45 5 25 15 98 20 145 2 19 4
35 5 35 5 0 7 312 3 343 -3 17 -9 32 -14 32 -5 0 -9 -3 -9 -7z"/>
<path d="M6590 4589 c-8 -8 -37 -30 -65 -49 -27 -18 -52 -37 -55 -41 -3 -4
-48 -35 -100 -69 -52 -34 -106 -70 -120 -79 -14 -9 -42 -25 -62 -36 -21 -11
-38 -23 -38 -27 0 -5 -9 -8 -20 -8 -11 0 -20 -4 -20 -8 0 -5 -12 -14 -27 -21
-16 -7 -28 -12 -28 -10 0 1 -19 -10 -42 -24 -24 -15 -43 -25 -43 -21 0 3 -12
-3 -27 -13 -25 -17 -79 -45 -93 -48 -3 0 -21 -8 -40 -17 -61 -29 -125 -56
-176 -76 -27 -10 -58 -22 -69 -27 -25 -10 -46 -16 -62 -17 -7 -1 -13 -5 -13
-8 0 -4 -15 -11 -32 -15 -47 -11 -50 -12 -83 -25 -16 -7 -37 -14 -45 -16 -18
-3 -45 -10 -87 -23 -18 -5 -33 -7 -33 -4 0 3 -6 1 -12 -5 -7 -5 -26 -13 -43
-16 -16 -3 -68 -14 -114 -25 -47 -11 -88 -18 -92 -15 -4 2 -10 1 -13 -4 -4 -7
-25 -11 -86 -15 -14 -1 -27 -5 -30 -8 -3 -4 -27 -9 -55 -13 -27 -3 -66 -8 -85
-10 -19 -3 -60 -7 -90 -10 -30 -3 -71 -8 -90 -11 -139 -18 -657 -28 -697 -14
-15 5 -23 5 -23 -2 0 -6 -5 -7 -11 -3 -7 4 -46 8 -88 10 -42 1 -96 5 -121 7
-25 3 -85 9 -135 13 -94 8 -107 9 -115 13 -3 2 -13 4 -22 6 -25 5 -22 -10 5
-22 58 -28 143 -66 152 -68 6 -1 28 -10 50 -20 22 -10 45 -20 51 -21 7 -1 39
-12 72 -23 34 -12 69 -24 79 -26 10 -3 36 -9 58 -15 22 -6 46 -12 53 -12 6 -1
12 -4 12 -8 0 -4 10 -6 23 -5 12 1 29 -1 37 -5 8 -5 33 -9 55 -11 22 -1 45 -5
50 -8 6 -3 19 -6 30 -8 11 -1 47 -5 80 -8 102 -11 155 -14 295 -14 162 -1 198
2 365 25 22 3 51 7 65 8 14 2 34 6 45 9 11 3 40 9 65 12 24 4 48 8 51 11 4 2
24 6 45 10 20 3 48 10 61 15 13 5 23 6 23 4 0 -2 12 0 28 6 15 6 36 12 46 15
10 2 35 8 55 14 47 15 55 17 63 19 4 1 26 8 48 16 22 8 40 11 40 7 0 -4 4 -2
8 3 4 6 36 20 72 32 119 39 195 68 198 76 2 4 10 7 19 7 8 0 29 6 46 14 18 7
84 35 147 61 63 27 134 56 158 66 23 10 45 18 47 18 3 0 18 7 34 15 16 9 31
12 35 9 3 -4 6 -2 6 4 0 12 36 24 44 15 3 -3 2 -10 -3 -16 -4 -6 -16 -31 -25
-56 -36 -93 -95 -201 -129 -237 -11 -13 -17 -23 -14 -23 8 0 -26 -41 -109
-131 -41 -45 -109 -107 -164 -149 -25 -19 -50 -39 -56 -45 -6 -5 -20 -16 -30
-22 -11 -7 -35 -23 -54 -36 -60 -39 -207 -127 -214 -127 -4 0 -23 -11 -44 -23
-20 -13 -89 -51 -152 -84 -63 -33 -133 -70 -154 -83 -22 -12 -61 -33 -88 -47
-77 -40 -62 -46 72 -29 19 3 58 7 85 11 28 3 61 8 75 11 14 3 39 7 55 10 17 3
40 7 53 10 12 2 34 6 50 9 15 3 38 8 52 11 14 3 36 8 50 10 14 3 43 10 65 16
22 6 45 11 50 12 6 2 30 9 55 16 25 8 52 14 60 14 8 0 17 3 20 6 3 3 57 22
120 43 63 21 131 46 150 54 19 9 37 17 40 18 125 40 492 252 585 337 17 16 35
28 40 28 6 0 16 9 23 20 7 11 16 20 21 20 5 0 27 17 48 38 22 20 57 53 79 73
41 37 164 167 199 210 11 13 36 44 55 69 19 25 40 51 47 58 7 7 20 26 30 42 9
17 21 30 25 30 4 0 8 4 8 10 0 8 65 108 90 137 6 7 10 14 9 15 -3 8 26 58 33
58 5 0 7 4 4 8 -3 5 2 18 12 28 22 26 44 64 36 64 -3 0 -62 -56 -131 -125 -69
-69 -130 -125 -136 -125 -6 0 -8 -3 -5 -6 3 -3 -17 -26 -45 -52 -29 -26 -56
-52 -62 -58 -47 -51 -399 -334 -414 -334 -6 0 -11 -4 -11 -8 0 -4 -54 -43
-120 -87 -66 -43 -120 -83 -120 -88 0 -6 -3 -8 -6 -4 -7 6 -123 -68 -136 -87
-5 -7 -8 -4 -8 6 0 9 6 23 13 30 22 22 97 137 97 148 0 5 5 10 10 10 6 0 10 7
10 15 0 8 4 15 9 15 5 0 14 14 20 30 5 17 15 30 21 30 6 0 8 5 5 10 -3 6 -1
10 6 10 7 0 9 3 6 6 -4 4 2 19 12 33 42 58 178 351 164 351 -3 0 -1 6 4 13 6
6 14 26 18 42 5 17 9 35 11 40 30 105 47 281 34 349 -4 26 -7 28 -20 15z"/>
<path d="M5734 648 c-5 -7 -7 -21 -6 -30 4 -20 -3 -22 -101 -19 -61 2 -70 -1
-92 -25 -14 -15 -25 -36 -26 -48 -1 -15 -3 -13 -10 10 -11 39 -39 64 -70 63
-13 0 -39 0 -56 0 -19 0 -34 -5 -34 -12 -1 -7 -2 -16 -4 -22 -1 -5 -3 -14 -3
-19 -1 -4 -15 6 -32 23 -30 33 -33 34 -161 22 -8 -1 -5 -228 3 -237 12 -12 37
16 33 37 -4 17 0 19 34 15 45 -5 98 18 106 45 8 24 25 25 20 1 -5 -26 10 -46
29 -39 12 5 16 20 16 61 0 72 6 86 40 86 34 0 37 -8 38 -83 0 -64 4 -72 27
-64 10 4 15 21 16 49 1 28 3 34 6 18 3 -14 13 -33 24 -43 20 -19 26 -32 9 -22
-6 3 -13 -1 -16 -10 -9 -22 25 -55 63 -61 75 -12 113 38 113 149 0 46 4 64 13
64 10 0 14 -18 14 -60 1 -70 15 -87 75 -87 l38 0 0 63 c0 62 9 92 26 85 5 -1
10 7 12 20 3 22 1 23 -40 19 -48 -5 -80 7 -72 27 7 19 -22 41 -32 24z m-462
-110 c19 -36 18 -51 -4 -75 -39 -41 -107 1 -87 55 6 15 16 30 22 34 23 15 56
8 69 -14z m377 -12 c12 -25 11 -31 -7 -55 -32 -43 -92 -24 -92 30 0 61 72 80
99 25z m148 -25 c0 -46 -3 -58 -14 -54 -18 7 -18 113 0 113 10 0 14 -17 14
-59z m-460 7 c-3 -8 -6 -5 -6 6 -1 11 2 17 5 13 3 -3 4 -12 1 -19z m298 -114
c-10 -8 -24 -14 -30 -14 -6 0 -20 6 -30 14 -16 12 -13 13 30 13 43 0 46 -1 30
-13z"/>
<path d="M5950 601 c-41 -9 -58 -24 -73 -61 -15 -37 -11 -62 13 -96 25 -34 52
-43 109 -35 5 0 23 14 39 30 l29 30 13 -25 c15 -27 67 -45 102 -37 34 8 70 45
65 65 -3 10 -1 21 5 24 14 9 0 56 -23 77 -35 33 -68 39 -108 20 -20 -10 -41
-29 -48 -43 -7 -14 -13 -20 -13 -14 0 33 -69 74 -110 65z m56 -55 c18 -19 9
-23 -46 -20 -59 3 -58 2 -36 19 25 19 63 19 82 1z m194 -1 c7 -8 11 -15 9 -16
-12 -2 -99 -4 -99 -3 0 2 3 9 6 18 8 21 67 21 84 1z m-189 -80 c-36 -26 -70
-26 -87 1 -13 18 -10 19 52 20 l64 2 -29 -23z m199 15 c0 -12 -34 -35 -50 -34
-25 2 -50 16 -50 28 0 7 19 12 50 12 28 1 50 -2 50 -6z"/>
<path d="M6388 602 c-15 -2 -39 -17 -53 -33 -71 -86 31 -219 116 -150 21 17
25 17 46 4 40 -26 80 -24 113 7 l30 28 0 -23 c0 -28 11 -37 30 -25 9 6 13 27
12 68 -1 64 14 90 43 78 11 -4 15 -22 15 -76 0 -63 2 -70 20 -70 18 0 20 7 20
59 0 72 6 91 31 91 25 0 30 -15 32 -87 2 -46 5 -58 20 -61 15 -3 17 6 17 76 0
64 -4 82 -18 95 -20 19 -77 23 -87 7 -4 -6 -16 -5 -34 5 -16 8 -31 11 -35 8
-4 -4 -19 -7 -34 -8 -20 0 -28 -6 -30 -23 -3 -22 -3 -22 -20 -2 -35 42 -116
41 -144 -3 -6 -9 -8 -9 -8 0 0 18 -50 39 -82 35z m52 -62 c26 -26 25 -44 -2
-75 -24 -28 -37 -31 -61 -12 -39 28 -24 107 20 107 12 0 32 -9 43 -20z m150 1
c26 -49 -5 -106 -51 -94 -22 6 -41 44 -34 68 3 8 7 22 10 30 7 23 62 19 75 -4z"/>
<path d="M6264 429 c-8 -14 11 -33 25 -25 16 10 13 36 -3 36 -8 0 -18 -5 -22
-11z"/>
</g>
</svg>
